<svg xmlns="http://www.w3.org/2000/svg" viewBox="0 0 64 42"><defs><style>.cls-1{fill:#6abbce;}</style></defs><title>account-settings</title><g id="Layer_2" data-name="Layer 2"><g id="Layer_1-2" data-name="Layer 1"><path class="cls-1" d="M57,0H13A6.92,6.92,0,0,0,6.1,6.1,6.92,6.92,0,0,0,0,13V35a7,7,0,0,0,7,7H51a6.92,6.92,0,0,0,6.9-6.1A7.09,7.09,0,0,0,64,29V7A7,7,0,0,0,57,0ZM56,35a5,5,0,0,1-5,5H7a5,5,0,0,1-5-5V13A5,5,0,0,1,7,8H51a5,5,0,0,1,5,5Zm6-6a5,5,0,0,1-4,4.9V13a7,7,0,0,0-7-7H8.1A5,5,0,0,1,13,2H57a5,5,0,0,1,5,5ZM20,23.3a6.32,6.32,0,0,0,.9-4.7,5.82,5.82,0,0,0-4.4-4.4A8.87,8.87,0,0,0,15,14a5.6,5.6,0,0,0-4.2,1.8A5.6,5.6,0,0,0,9,20a6.11,6.11,0,0,0,1,3.3A6,6,0,0,0,6,29v2a3,3,0,0,0,3,3H21a3,3,0,0,0,3-3V29A6.19,6.19,0,0,0,20,23.3ZM22,31a.94.94,0,0,1-1,1H9a.94.94,0,0,1-1-1V29a4,4,0,0,1,4-4h2V23.9A4,4,0,0,1,15,16a3.75,3.75,0,0,1,1,.1A3.9,3.9,0,0,1,18.9,19,4,4,0,0,1,16,23.8V25h2a4,4,0,0,1,4,4ZM52,18a.94.94,0,0,1-1,1H29a1,1,0,0,1,0-2H51A.94.94,0,0,1,52,18Zm0,4a.94.94,0,0,1-1,1H29a1,1,0,0,1,0-2H51A.94.94,0,0,1,52,22Zm0,4a.94.94,0,0,1-1,1H29a1,1,0,0,1,0-2H51A.94.94,0,0,1,52,26ZM42,30a.94.94,0,0,1-1,1H29a1,1,0,0,1,0-2H41A.94.94,0,0,1,42,30Z"/></g></g></svg>