<svg xmlns="http://www.w3.org/2000/svg" viewBox="0 0 2122.19 2849.72"><defs><style>.cls-1{fill:none;}.cls-2{fill:#d1d1d1;}.cls-3{fill:#fff;}.cls-4{fill:#ddab89;}.cls-5{fill:#9acddb;}.cls-6{fill:#ededed;}.cls-7{fill:#ffca00;}.cls-8{fill:#e8ba9c;}.cls-9{fill:#efcfb9;}</style></defs><title>Asset 1</title><g id="Layer_2" data-name="Layer 2"><g id="Capa_1" data-name="Capa 1"><polygon class="cls-1" points="1886.17 2076.13 1886.17 2076.96 1959.83 2076.96 1959.83 2076.13 1886.57 2076.13 1886.17 2076.13"/><path class="cls-2" d="M767.74,2077h73.59v-.83H768.08V234.37h-.34v-.83h-.06V1396.66h.06Z"/><path class="cls-2" d="M1890.33,1750.69l-3.76.24v302.53c29.12-5.43,53.25-13.25,73.25-22.54V1761.57C1923.25,1748.53,1890.33,1750.69,1890.33,1750.69Z"/><path class="cls-2" d="M1925.44,1403.2l-38.87,2.55v290.1c28.3-2.93,52.52-7.95,73.25-14.44v-275.9C1939.79,1402.27,1925.44,1403.2,1925.44,1403.2Z"/><path class="cls-2" d="M1886.57,234.37V1285.06l41-10q17.07-4.18,32.2-9V233.54h0v.83Z"/><path class="cls-1" d="M884.66,2077H767.74v.83H883.23Z"/><path class="cls-2" d="M1959.82,1681.41l.4-.12V1405.57l-.4-.06Z"/><path class="cls-2" d="M1959.82,2030.92l.4-.18v-269l-.4-.14Z"/><path class="cls-3" d="M886.09,2076.13H841.33v.83h43.33Z"/><polygon class="cls-3" points="1590.29 2076.13 1577.64 2076.96 1886.17 2076.96 1886.17 2076.13 1590.29 2076.13"/><path class="cls-2" d="M1960.22,1405.57V1265.91l-.4.12v139.48Z"/><path class="cls-2" d="M1886.57,1285.06v120.69l38.87-2.55s14.35-.93,34.38,2.31V1266q-15.15,4.79-32.2,9Z"/><path class="cls-2" d="M1959.82,2076.13h.4v-45.39l-.4.18Z"/><path class="cls-2" d="M1886.57,2053.46v22.67h73.25v-45.21C1939.82,2040.21,1915.69,2048,1886.57,2053.46Z"/><path class="cls-2" d="M1959.82,1681.41v80.16l.4.14v-80.42Z"/><path class="cls-2" d="M1886.57,1750.93l3.76-.24s32.92-2.16,69.49,10.88v-80.16c-20.73,6.49-45,11.51-73.25,14.44Z"/><rect class="cls-2" x="768.08" y="234.37" width="73.25" height="1841.76"/><rect class="cls-3" x="841.33" y="234.37" width="0.4" height="1841.76"/><path class="cls-4" d="M2119.45,1072.57l-.3-1.06c-29.47-105.23-114.77-114.87-158.93-112.35v306.75C2156.24,1204,2119.45,1072.57,2119.45,1072.57Z"/><path class="cls-4" d="M2082.39,1538.12l-.2-2c-9.57-96.9-78.78-123.46-122-130.56v275.72C2092.42,1639.7,2082.39,1538.12,2082.39,1538.12Z"/><path class="cls-4" d="M2056,1892.68l-.16-1.62c-7.88-79.78-54-114.42-95.63-129.35v269C2064.83,1981.94,2056,1892.68,2056,1892.68Z"/><path class="cls-4" d="M1439.9,2077.79H1565l12.63-.83H1440.33Z"/><path class="cls-4" d="M1440.75,2076.13l-.42.83h137.31l12.65-.83Z"/><path class="cls-4" d="M1731.89,2370.5H1185.41c-3.85,3.17-6,4.84-6,4.84q-4.65,23.73-10,46.22l392.86,49.94c194.68,24.74,223.47-84.64,227.16-105.44C1756.46,2371.62,1731.89,2370.5,1731.89,2370.5Z"/><path class="cls-3" d="M1886.17,1751l.4,0v-55.08l-.4,0Z"/><path class="cls-3" d="M1867.38,1697.47l-142,9.32-7.93,7.32c.1,2.08.16,4.2.16,6.39V1762L1886.17,1751v-55.07Q1877.06,1696.82,1867.38,1697.47Z"/><path class="cls-3" d="M1886.17,2076.13h.4v-22.67l-.4.07Z"/><path class="cls-3" d="M1829.69,2060.41l-239.4,15.72h295.88v-22.6A483.21,483.21,0,0,1,1829.69,2060.41Z"/><polygon class="cls-3" points="1886.17 974.19 1886.57 974.1 1886.57 234.37 1886.17 234.37 1886.17 974.19"/><path class="cls-3" d="M1053.61,1950.7h-51.68s-75.84,0-75.84-84.27V1720.5s0-84.27,75.84-84.27h131.83l-3.51-35.59s-4.49-45.51,32.16-88.07H1086.2c-75.84,0-75.84-84.27-75.84-84.27V1104.5c0-2.19.06-4.31.16-6.39l-84.43-77.88h772.07l188-46V234.37H841.73V2076.13h44.36c40.86-23.7,94.12-51.37,162.54-81.62q4.18-1.86,8.3-3.92l-3.17-32.1A69.67,69.67,0,0,1,1053.61,1950.7ZM926.09,486.13s0-84.26,75.84-84.26h799.94l-84.43,77.87c.1,2.08.16,4.2.16,6.39V809.94s0,84.26-75.84,84.26H1001.93s-75.84,0-75.84-84.26Z"/><polygon class="cls-3" points="1886.17 1405.78 1886.57 1405.75 1886.57 1285.06 1886.17 1285.15 1886.17 1405.78"/><polygon class="cls-3" points="1801.87 1411.31 1886.17 1405.78 1886.17 1285.15 1801.87 1305.79 1801.87 1411.31"/><polygon class="cls-3" points="1886.17 1285.15 1886.57 1285.06 1886.57 974.1 1886.17 974.19 1886.17 1285.15"/><path class="cls-3" d="M1726,1020.23c75.84,0,75.84,84.27,75.84,84.27v201.29l84.3-20.64v-311l-188,46Z"/><path class="cls-3" d="M1886.17,1695.89l.4,0v-290.1l-.4,0Z"/><path class="cls-3" d="M1801.87,1428.3c0,84.27-75.84,84.27-75.84,84.27H1162.41c-36.65,42.56-32.16,88.07-32.16,88.07l3.51,35.59h668.11l-76.5,70.56,142-9.32q9.69-.65,18.79-1.58V1405.78l-84.3,5.53Z"/><path class="cls-3" d="M1053.76,1958.49l3.17,32.1c20.39-10.18,39.72-24.1,58.37-39.89h-61.69A69.67,69.67,0,0,0,1053.76,1958.49Z"/><path class="cls-3" d="M1886.17,1751v302.57l.4-.07V1750.93Z"/><path class="cls-3" d="M1886.17,2053.53V1751L1717.6,1762v104.4s0,84.27-75.84,84.27H1475.49c.18,40.6-13.36,83.34-34.74,125.43h149.54l239.4-15.72A483.21,483.21,0,0,0,1886.17,2053.53Z"/><polygon class="cls-5" points="841.73 233.54 841.73 232.71 768.08 232.71 768.08 233.54 841.34 233.54 841.73 233.54"/><rect class="cls-5" x="768.08" y="233.54" width="73.25" height="0.83"/><rect class="cls-5" x="841.33" y="233.54" width="0.4" height="0.83"/><path class="cls-5" d="M768.08,232.71H1959.77V183S1959.77.37,1731.89.37H995.61S767.74-16.76,767.74,183v50.56h.34Zm500-125.44H1534v33.36H1268.07Zm-73.37,0h44.38v33.36H1194.7Z"/><rect class="cls-5" x="767.74" y="233.54" width="0.34" height="0.83"/><rect class="cls-5" x="1886.57" y="232.71" width="73.2" height="0.83"/><rect class="cls-5" x="1886.57" y="233.54" width="73.2" height="0.83"/><path class="cls-5" d="M1378.76,2172.69l290,36.87s133.92,17,121.32,151.43l-.16,1.71s-.11,1.2-.5,3.36c67.51-11.36,170.3-50.66,170.3-184.64V2077.79H1565l-129.58,8.51C1419.51,2115.85,1399.93,2145,1378.76,2172.69Z"/><path class="cls-5" d="M883.23,2077.79H767.74v81.84S797.52,2127.81,883.23,2077.79Z"/><path class="cls-5" d="M1435.43,2086.3l129.58-8.51H1439.9C1438.45,2080.63,1437,2083.46,1435.43,2086.3Z"/><path class="cls-5" d="M1790.13,2361c12.6-134.41-121.32-151.43-121.32-151.43l-290-36.87c-74.58,97.63-169,177.76-193.35,197.81h546.48s24.57,1.12,57.58-4.44c.39-2.16.5-3.36.5-3.36Z"/><polygon class="cls-5" points="841.73 233.54 1886.17 233.54 1886.57 233.54 1886.57 232.71 841.73 232.71 841.73 233.54"/><rect class="cls-5" x="1886.17" y="233.54" width="0.4" height="0.83"/><rect class="cls-5" x="841.73" y="233.54" width="1044.44" height="0.83"/><rect class="cls-6" x="1268.07" y="107.27" width="265.88" height="33.36"/><rect class="cls-6" x="1194.7" y="107.27" width="44.38" height="33.36"/><path class="cls-7" d="M1717.44,1714.11l7.93-7.32-182.71,12h106.67v18.73H1257.39l-42,2.76a89.15,89.15,0,0,1-24.88-2.76H999.07v-18.73h157.46c-9.53-9.78-17-24-19-44.52l-3.76-38H1001.93c-75.84,0-75.84,84.27-75.84,84.27v145.93c0,84.27,75.84,84.27,75.84,84.27h51.68c.42-15.61,5-52.17,35.43-86.54h-90v-23H1114.3c24.69-18.27,59.36-34.11,108-43.3H999.07v-18.72h457.67L1717.6,1762V1720.5C1717.6,1718.31,1717.54,1716.19,1717.44,1714.11Z"/><path class="cls-7" d="M1641.76,1636.23h-508l3.76,38c2,20.56,9.48,34.74,19,44.52h386.13l182.71-12,76.5-70.56Z"/><path class="cls-7" d="M1215.35,1740.28l42-2.76h-66.92A89.15,89.15,0,0,0,1215.35,1740.28Z"/><path class="cls-7" d="M1649.33,1779.16v18.72H1368.45c13.75,5.06,28,13.26,42.79,25.23a207.48,207.48,0,0,1,19.71,18.07h99.61v23h-81.08c18,26.86,25.87,56.1,26,86.54h166.27c75.84,0,75.84-84.27,75.84-84.27V1762l-260.86,17.13Z"/><path class="cls-7" d="M1268.93,1812.12a156.83,156.83,0,0,1,29.16-14.24H1222.3c-48.64,9.19-83.31,25-108,43.3h110.42C1237.9,1829.84,1252.92,1819.25,1268.93,1812.12Z"/><path class="cls-7" d="M1179.4,1889.75c4.79-6.29,12.19-15.5,21.57-25.59H1089c-30.47,34.37-35,70.93-35.43,86.54h61.69C1137.43,1932,1158.59,1910.61,1179.4,1889.75Z"/><polygon class="cls-3" points="1649.33 1737.52 1649.33 1718.79 1542.66 1718.79 1257.39 1737.52 1649.33 1737.52"/><path class="cls-3" d="M999.07,1718.79v18.73h191.4c-11-2.77-23.66-8.19-33.94-18.73Z"/><path class="cls-3" d="M1190.47,1737.52h66.92l285.27-18.73H1156.53C1166.81,1729.33,1179.5,1734.75,1190.47,1737.52Z"/><path class="cls-3" d="M1114.3,1841.18H999.07v23h90A163.32,163.32,0,0,1,1114.3,1841.18Z"/><path class="cls-3" d="M1224.72,1841.18H1114.3a163.32,163.32,0,0,0-25.26,23H1201A296.47,296.47,0,0,1,1224.72,1841.18Z"/><path class="cls-3" d="M1530.56,1864.16v-23H1431a172,172,0,0,1,18.53,23Z"/><path class="cls-3" d="M1456.74,1779.16H999.07v18.72H1222.3a481.11,481.11,0,0,1,57.78-7.12Z"/><path class="cls-3" d="M1368.45,1797.88h280.88v-18.72H1456.74l-176.66,11.6a481.11,481.11,0,0,0-57.78,7.12h75.79C1320.45,1789.9,1343.68,1788.76,1368.45,1797.88Z"/><path class="cls-8" d="M883.23,2077.79h193.86c-.21-.27-.42-.56-.64-.83H884.66Z"/><path class="cls-8" d="M884.66,2077h191.79l-.63-.83H886.09Z"/><path class="cls-8" d="M898.58,2360.07c-130.83-32.05-130.84-127-130.84-127V2077h-.06v-680.3C733.93,1406.17,584.53,1477.8,527,1561s-354.86,903.89-372.83,959.21C145.56,2546.53,30.54,2811.67,0,2849.72H935.2c69.66-59.41,178.67-194,234.25-428.16l-218.26-27.74S915.06,2389.22,898.58,2360.07Z"/><path class="cls-8" d="M767.74,2077V1396.65h-.06V2077Z"/><path class="cls-8" d="M1077.09,2077.79H1439.9l.43-.83H1076.45C1076.67,2077.23,1076.88,2077.52,1077.09,2077.79Z"/><path class="cls-8" d="M1076.45,2077h363.88l.42-.83H1075.82Z"/><path class="cls-8" d="M1185.41,2370.5H995.61c-38.48,0-70.45-3.92-97-10.43,16.48,29.15,52.61,33.75,52.61,33.75l218.26,27.74q5.34-22.5,10-46.22S1181.56,2373.67,1185.41,2370.5Z"/><path class="cls-8" d="M886.09,2076.13h189.73c-7.29-9.84-12.7-22.94-14.43-40.39l-4.46-45.15q-4.12,2.06-8.3,3.92C980.21,2024.76,927,2052.43,886.09,2076.13Z"/><path class="cls-8" d="M1401.16,1950.7a145.78,145.78,0,0,1-10.67,17.68l-19.43,27.76s-58.07,82.92-141,24.86l-2.93-2s-49.7-29.31-62.87-68.25h-49c-18.65,15.79-38,29.71-58.37,39.89l4.46,45.15c1.73,17.45,7.14,30.55,14.43,40.39h364.93c21.38-42.09,34.92-84.83,34.74-125.43Z"/><path class="cls-8" d="M1077.09,2077.79H883.23c-85.71,50-115.49,81.84-115.49,81.84v73.49s0,94.9,130.84,127c-5.87-10.39-9.24-23.89-7.6-41.41l6.51-69.4s12.76-136.12,227.66-108.8l253.61,32.23c21.17-27.71,40.75-56.84,56.67-86.39l-291.82,19.16S1101.21,2108.24,1077.09,2077.79Z"/><path class="cls-8" d="M1143.61,2105.46l291.82-19.16c1.52-2.84,3-5.67,4.47-8.51H1077.09C1101.21,2108.24,1143.61,2105.46,1143.61,2105.46Z"/><path class="cls-8" d="M897.49,2249.26l-6.51,69.4c-1.64,17.52,1.73,31,7.6,41.41,26.58,6.51,58.55,10.43,97,10.43h189.8c24.37-20.05,118.77-100.18,193.35-197.81l-253.61-32.23C910.25,2113.14,897.49,2249.26,897.49,2249.26Z"/><path class="cls-8" d="M1173.21,1898.23s2.19-3.23,6.19-8.48c-20.81,20.86-42,42.21-64.1,61h49C1158.76,1934.41,1159.64,1916.45,1173.21,1898.23Z"/><path class="cls-8" d="M1268.93,1812.12c29.61-13.16,62.63-14.49,93.77,13.23,2.85,2.53,10.09,7.86,18.18,15.83H1431a207.48,207.48,0,0,0-19.71-18.07c-14.82-12-29-20.17-42.79-25.23h-70.36A156.83,156.83,0,0,0,1268.93,1812.12Z"/><path class="cls-8" d="M1399.45,1864.16c13,21.17,20.11,50.29,1.71,86.54h74.33c-.14-30.44-8-59.68-26-86.54Z"/><path class="cls-8" d="M1399.45,1864.16h50a172,172,0,0,0-18.53-23h-50.07A122.28,122.28,0,0,1,1399.45,1864.16Z"/><path class="cls-8" d="M1298.09,1797.88h70.36C1343.68,1788.76,1320.45,1789.9,1298.09,1797.88Z"/><path class="cls-9" d="M1268.93,1812.12c-16,7.13-31,17.72-44.21,29.06h5.51C1243,1830.07,1255.88,1820.14,1268.93,1812.12Z"/><path class="cls-9" d="M1179.4,1889.75c8.67-8.69,17.29-17.3,25.88-25.59H1201C1191.59,1874.25,1184.19,1883.46,1179.4,1889.75Z"/><path class="cls-9" d="M1224.72,1841.18a296.47,296.47,0,0,0-23.75,23h4.31c8.32-8,16.62-15.75,25-23Z"/><path class="cls-9" d="M1227.14,2019l2.93,2c82.92,58.06,141-24.86,141-24.86l19.43-27.76a145.78,145.78,0,0,0,10.67-17.68H1164.27C1177.44,1989.64,1227.14,2019,1227.14,2019Z"/><path class="cls-9" d="M1399.45,1864.16H1205.28c-8.59,8.29-17.21,16.9-25.88,25.59-4,5.25-6.19,8.48-6.19,8.48-13.57,18.22-14.45,36.18-8.94,52.47h236.89C1419.56,1914.45,1412.43,1885.33,1399.45,1864.16Z"/><path class="cls-9" d="M1380.88,1841.18c-8.09-8-15.33-13.3-18.18-15.83-31.14-27.72-64.16-26.39-93.77-13.23-13,8-25.91,18-38.7,29.06Z"/><path class="cls-9" d="M1230.23,1841.18c-8.33,7.23-16.63,15-25,23h194.17a122.28,122.28,0,0,0-18.57-23Z"/><path class="cls-7" d="M1001.93,894.2h639.83c75.84,0,75.84-84.26,75.84-84.26V486.13c0-2.19-.06-4.31-.16-6.39l84.43-77.87H1001.93c-75.84,0-75.84,84.26-75.84,84.26V809.94C926.09,894.2,1001.93,894.2,1001.93,894.2Zm-2.86-409.77h650.26v18.72H999.07Zm0,60.36h650.26v18.72H999.07Zm0,60.36h650.26v18.72H999.07Zm0,60.36h650.26v18.73H999.07Zm0,60.36h650.26V744.6H999.07Zm0,60.36h531.49V805H999.07Z"/><rect class="cls-3" x="999.07" y="484.43" width="650.26" height="18.72"/><rect class="cls-3" x="999.07" y="665.51" width="650.26" height="18.73"/><rect class="cls-3" x="999.07" y="605.15" width="650.26" height="18.72"/><rect class="cls-3" x="999.07" y="725.87" width="650.26" height="18.73"/><rect class="cls-3" x="999.07" y="786.23" width="531.49" height="18.73"/><rect class="cls-3" x="999.07" y="544.79" width="650.26" height="18.72"/><path class="cls-5" d="M1345.26,1441.29l273.71-18H1321.85l-55.63,13.62s-38.69,9.47-67.17-13.62h-1.65v-1.39c-9.65-8.37-18-20.69-23-38.65L1168.7,1363h-90.08v-18.72h84.84l-9.86-35.2s-.64-2.31-1.31-6.44h-73.67v-18.73h72.24a136.43,136.43,0,0,1,6.53-41.63h-78.77v-18.73h86.29a157.77,157.77,0,0,1,29.85-41.63H1078.62v-18.73h137.53c20-15.19,45.89-29.49,79.42-41.63h-217v-18.73H1361l337.21-82.56H926.09l84.43,77.88c-.1,2.08-.16,4.2-.16,6.39v323.8s0,84.27,75.84,84.27h76.21C1191,1479.33,1244.74,1447.89,1345.26,1441.29Z"/><polygon class="cls-5" points="1728.89 1344.24 1728.89 1362.96 1568.39 1362.96 1398.31 1404.6 1728.89 1404.6 1728.89 1416.1 1801.87 1411.31 1801.87 1305.79 1644.85 1344.24 1728.89 1344.24"/><path class="cls-5" d="M1266.22,1436.94l55.63-13.62h-122.8C1227.53,1446.41,1266.22,1436.94,1266.22,1436.94Z"/><path class="cls-5" d="M1398.31,1404.6,1568.39,1363H1168.7l5.69,20.32c5,18,13.36,30.28,23,38.65V1404.6Z"/><path class="cls-5" d="M1728.89,1102.79v18.73H1295.57c-33.53,12.14-59.43,26.44-79.42,41.63h512.74v18.73H1194.76a157.77,157.77,0,0,0-29.85,41.63h564v18.73h-571.5a136.43,136.43,0,0,0-6.53,41.63h578v18.73h-576.6c.67,4.13,1.31,6.44,1.31,6.44l9.86,35.2h481.39l157-38.45V1104.5s0-84.27-75.84-84.27h-27.87L1361,1102.79Z"/><path class="cls-5" d="M1801.87,1428.3v-17l-73,4.79v7.22H1619l-273.71,18c-100.52,6.6-154.22,38-182.85,71.28H1726S1801.87,1512.57,1801.87,1428.3Z"/><path class="cls-3" d="M1361,1102.79H1078.62v18.73h217a485.13,485.13,0,0,1,49.86-14.93Z"/><path class="cls-3" d="M1728.89,1102.79H1361l-15.52,3.8a485.13,485.13,0,0,0-49.86,14.93h433.32Z"/><path class="cls-3" d="M1078.62,1283.87v18.73h73.67a120.55,120.55,0,0,1-1.43-18.73Z"/><path class="cls-3" d="M1728.89,1283.87h-578a120.55,120.55,0,0,0,1.43,18.73h576.6Z"/><path class="cls-3" d="M1078.62,1223.51v18.73h78.77a139.76,139.76,0,0,1,7.52-18.73Z"/><path class="cls-3" d="M1728.89,1223.51h-564a139.76,139.76,0,0,0-7.52,18.73h571.5Z"/><polygon class="cls-3" points="1728.89 1362.96 1728.89 1344.24 1644.85 1344.24 1568.39 1362.96 1728.89 1362.96"/><polygon class="cls-3" points="1078.62 1344.24 1078.62 1362.96 1168.7 1362.96 1163.46 1344.24 1078.62 1344.24"/><polygon class="cls-3" points="1644.85 1344.24 1163.46 1344.24 1168.7 1362.96 1568.39 1362.96 1644.85 1344.24"/><path class="cls-3" d="M1197.4,1423.32h1.65c-.56-.45-1.1-.91-1.65-1.39Z"/><polygon class="cls-3" points="1398.31 1404.6 1321.85 1423.32 1618.97 1423.32 1728.89 1416.1 1728.89 1404.6 1398.31 1404.6"/><path class="cls-3" d="M1197.4,1404.6v17.33c.55.48,1.09.94,1.65,1.39h122.8l76.46-18.72Z"/><polygon class="cls-3" points="1728.89 1423.32 1728.89 1416.1 1618.97 1423.32 1728.89 1423.32"/><path class="cls-3" d="M1078.62,1163.15v18.73h116.14a197.52,197.52,0,0,1,21.39-18.73Z"/><path class="cls-3" d="M1728.89,1163.15H1216.15a197.52,197.52,0,0,0-21.39,18.73h534.13Z"/></g></g></svg>