<svg xmlns="http://www.w3.org/2000/svg" viewBox="0 0 240.56 202.31"><defs><style>.cls-1{fill:#87c2cc;}.cls-2{fill:#fff;}.cls-3{fill:#bbd655;}.cls-4{fill:#a5d5f2;}.cls-5{fill:#c3e5e0;}.cls-6{fill:#aae2e2;}.cls-7{fill:#c0ce89;}.cls-8{fill:#c8c8c8;}</style></defs><title>customization</title><g id="Layer_2" data-name="Layer 2"><g id="Capa_1" data-name="Capa 1"><path class="cls-1" d="M107.57,40.38l-96.5-.06a11,11,0,0,0-11,11L0,191.25a11,11,0,0,0,11,11l96.5.06a11,11,0,0,0,11-11l.09-139.93A11,11,0,0,0,107.57,40.38ZM59.23,198.16a6.53,6.53,0,1,1,6.54-6.52A6.53,6.53,0,0,1,59.23,198.16Zm48.13-18.75-96.23-.06L11.2,53.54l96.23.05Z"/><path class="cls-2" d="M59.24,185.1a6.53,6.53,0,1,0,6.53,6.54A6.54,6.54,0,0,0,59.24,185.1Z"/><path class="cls-2" d="M11.13,179.35l96.23.06.07-125.82L11.2,53.54Zm7.15-10.61h0Zm0-6h0Zm0-20h0Zm0-4h0Zm0-4h0Zm0-4h0Zm0-4h0Zm0-4h0Zm0-4h0Zm82.84,50.5H60.28V118.72h40.84Zm-40.84-56.5h0Zm0-4h0Zm0-4h0Zm0-4h0Zm0-4h0Zm0-4h0Zm0-4h0Zm0-4h0Zm0-4h0Zm-43-16.5h84v11h-84Zm0,16h40v33h-40Z"/><rect class="cls-3" x="60.28" y="118.72" width="40.84" height="50.51"/><rect class="cls-4" x="17.28" y="64.24" width="84" height="11"/><rect class="cls-5" x="17.28" y="80.24" width="40" height="33"/><path class="cls-1" d="M231.77,0H181a8.79,8.79,0,0,0-8.78,8.8V111.94a8.79,8.79,0,0,0,8.78,8.78h50.8a8.79,8.79,0,0,0,8.79-8.78V8.8A8.8,8.8,0,0,0,231.77,0ZM226,5.51a2.25,2.25,0,1,1-2.26,2.24A2.24,2.24,0,0,1,226,5.51Zm-31.38.85h23.55V8.93H194.6Zm22.49,105H195.65v-6.6h21.44ZM234,97.81H178.78v-83H234Z"/><path class="cls-2" d="M178.78,97.81H234v-83H178.78Zm3.13-78.18h48.5V71.7h-48.5Zm0,56.3h48.5v18.6h-48.5Z"/><polygon class="cls-2" points="218.15 8.93 218.15 6.36 194.6 6.36 194.6 8.93 218.15 8.93 218.15 8.93"/><path class="cls-2" d="M226,10a2.25,2.25,0,1,0-2.26-2.25A2.25,2.25,0,0,0,226,10Z"/><rect class="cls-2" x="195.65" y="104.75" width="21.45" height="6.6"/><rect class="cls-6" x="181.91" y="19.63" width="48.5" height="52.06"/><rect class="cls-7" x="181.91" y="75.93" width="48.5" height="18.6"/><path class="cls-8" d="M204.72,134.24h1.53v-1.86A3,3,0,0,1,204.72,134.24Z"/><path class="cls-8" d="M200.38,131.57a3,3,0,0,1,5.87-.82v-2.51h-6v6H202A3,3,0,0,1,200.38,131.57Z"/><path class="cls-8" d="M206.25,132.38a2.62,2.62,0,0,0,0-1.63Z"/><path class="cls-8" d="M203.38,134.57a3,3,0,0,0,1.34-.33H202A3.06,3.06,0,0,0,203.38,134.57Z"/><path class="cls-8" d="M203.38,128.57a3,3,0,0,0-1.35,5.67h2.69a3,3,0,0,0,1.53-1.86v-1.63A3,3,0,0,0,203.38,128.57Z"/><path class="cls-8" d="M204.17,145.24h2.08v-2.19A3,3,0,0,1,204.17,145.24Z"/><path class="cls-8" d="M200.33,142.37a3,3,0,0,1,5.92-.68v-2.45h-6v6h2.25A3,3,0,0,1,200.33,142.37Z"/><path class="cls-8" d="M203.33,145.37a3.21,3.21,0,0,0,.84-.13H202.5A3.2,3.2,0,0,0,203.33,145.37Z"/><path class="cls-8" d="M206.25,143.05a3.08,3.08,0,0,0,.08-.68,3,3,0,0,0-.08-.68Z"/><path class="cls-8" d="M203.33,139.37a3,3,0,0,0-.83,5.87h1.67a3,3,0,0,0,2.08-2.19v-1.36A3,3,0,0,0,203.33,139.37Z"/><path class="cls-8" d="M206.25,152.75v-2.51h-2.33A3,3,0,0,1,206.25,152.75Z"/><path class="cls-8" d="M203.29,156.17a3,3,0,0,1-.62-5.93h-2.42v6h6v-2.65A3,3,0,0,1,203.29,156.17Z"/><path class="cls-8" d="M203.29,150.17a2.56,2.56,0,0,0-.62.07h1.25A2.65,2.65,0,0,0,203.29,150.17Z"/><path class="cls-8" d="M206.25,153.59a3,3,0,0,0,0-.42,2.72,2.72,0,0,0,0-.42Z"/><path class="cls-8" d="M203.92,150.24h-1.25a3,3,0,1,0,3.58,3.35v-.84A3,3,0,0,0,203.92,150.24Z"/><path class="cls-8" d="M206.25,164v-2.72h-1.77A3,3,0,0,1,206.25,164Z"/><path class="cls-8" d="M203.25,167a3,3,0,0,1-1.22-5.73h-1.78v6h6V164A3,3,0,0,1,203.25,167Z"/><path class="cls-8" d="M203.25,161a2.91,2.91,0,0,0-1.22.27h2.45A3,3,0,0,0,203.25,161Z"/><polygon class="cls-8" points="206.25 163.96 206.25 163.98 206.25 163.97 206.25 163.96"/><path class="cls-8" d="M204.48,161.24H202a3,3,0,1,0,4.22,2.74v0A3,3,0,0,0,204.48,161.24Z"/><path class="cls-8" d="M189.72,164.24a3,3,0,0,1,3-3h-3.47v6h3.47A3,3,0,0,1,189.72,164.24Z"/><path class="cls-8" d="M192.72,167.24h2.53v-1.41A3,3,0,0,1,192.72,167.24Z"/><path class="cls-8" d="M195.25,162.64v-1.4h-2.53A3,3,0,0,1,195.25,162.64Z"/><path class="cls-8" d="M195.25,162.64v3.19a2.94,2.94,0,0,0,0-3.19Z"/><path class="cls-8" d="M192.72,161.24a3,3,0,1,0,2.53,4.59v-3.19A3,3,0,0,0,192.72,161.24Z"/><path class="cls-8" d="M184.92,164.24a3,3,0,0,1-3,3h3.33v-6h-3.33A3,3,0,0,1,184.92,164.24Z"/><path class="cls-8" d="M179.25,165.58v1.66h2.67A3,3,0,0,1,179.25,165.58Z"/><path class="cls-8" d="M181.92,161.24h-2.67v1.65A3,3,0,0,1,181.92,161.24Z"/><path class="cls-8" d="M178.92,164.24a2.89,2.89,0,0,0,.33,1.34v-2.69A2.9,2.9,0,0,0,178.92,164.24Z"/><path class="cls-8" d="M184.92,164.24a3,3,0,0,0-5.67-1.35v2.69a3,3,0,0,0,5.67-1.34Z"/><path class="cls-8" d="M168.25,165.07v2.17h2.87A3,3,0,0,1,168.25,165.07Z"/><path class="cls-8" d="M171.12,161.24h-2.87v2.16A3,3,0,0,1,171.12,161.24Z"/><path class="cls-8" d="M174.12,164.24a3,3,0,0,1-3,3h3.13v-6h-3.13A3,3,0,0,1,174.12,164.24Z"/><path class="cls-8" d="M168.12,164.24a2.83,2.83,0,0,0,.13.83V163.4A2.89,2.89,0,0,0,168.12,164.24Z"/><path class="cls-8" d="M174.12,164.24a3,3,0,0,0-5.87-.84v1.67a3,3,0,0,0,5.87-.83Z"/><path class="cls-8" d="M157.32,164.24a3,3,0,0,1,3-3h-3.07v6h3.07A3,3,0,0,1,157.32,164.24Z"/><path class="cls-8" d="M163.25,163.61v-2.37h-2.93A3,3,0,0,1,163.25,163.61Z"/><path class="cls-8" d="M160.32,167.24h2.93v-2.38A3,3,0,0,1,160.32,167.24Z"/><path class="cls-8" d="M163.25,163.61v1.25a2.83,2.83,0,0,0,0-1.25Z"/><path class="cls-8" d="M160.32,161.24a3,3,0,1,0,2.93,3.62v-1.25A3,3,0,0,0,160.32,161.24Z"/><path class="cls-8" d="M149.52,167.24h2.73v-1.78A3,3,0,0,1,149.52,167.24Z"/><path class="cls-8" d="M146.52,164.24a3,3,0,0,1,3-3h-3.27v6h3.27A3,3,0,0,1,146.52,164.24Z"/><path class="cls-8" d="M152.25,163v-1.77h-2.73A3,3,0,0,1,152.25,163Z"/><path class="cls-8" d="M152.25,163v2.45a2.94,2.94,0,0,0,.27-1.22A3,3,0,0,0,152.25,163Z"/><path class="cls-8" d="M149.52,161.24a3,3,0,1,0,2.73,4.22V163A3,3,0,0,0,149.52,161.24Z"/><path class="cls-8" d="M135.72,164.24a3,3,0,0,1,3-3h-3.47v6h3.47A3,3,0,0,1,135.72,164.24Z"/><path class="cls-8" d="M141.25,162.64v-1.4h-2.53A3,3,0,0,1,141.25,162.64Z"/><path class="cls-8" d="M138.72,167.24h2.53v-1.41A3,3,0,0,1,138.72,167.24Z"/><path class="cls-8" d="M141.25,162.64v3.19a2.94,2.94,0,0,0,0-3.19Z"/><path class="cls-8" d="M138.72,161.24a3,3,0,1,0,2.53,4.59v-3.19A3,3,0,0,0,138.72,161.24Z"/><path class="cls-8" d="M130.92,164.24a3,3,0,0,1-3,3h3.33v-6h-3.33A3,3,0,0,1,130.92,164.24Z"/><path class="cls-8" d="M127.92,161.24h-2.67v1.65A3,3,0,0,1,127.92,161.24Z"/><path class="cls-8" d="M125.25,165.58v1.66h2.67A3,3,0,0,1,125.25,165.58Z"/><path class="cls-8" d="M124.92,164.24a2.89,2.89,0,0,0,.33,1.34v-2.69A2.9,2.9,0,0,0,124.92,164.24Z"/><path class="cls-8" d="M130.92,164.24a3,3,0,0,0-5.67-1.35v2.69a3,3,0,0,0,5.67-1.34Z"/></g></g></svg>