<svg xmlns="http://www.w3.org/2000/svg" viewBox="0 0 90 64.59"><defs><style>.cls-1{fill:none;}.cls-2{fill:#9acddb;}.cls-3{fill:#85a4af;}.cls-4{fill:#fff;}.cls-5{fill:#eab818;}</style></defs><title>general-settings</title><g id="Layer_2" data-name="Layer 2"><g id="Layer_1-2" data-name="Layer 1"><path class="cls-1" d="M86.46,63.24h.17a2,2,0,0,0,2-2v-.17A2.2,2.2,0,0,1,86.46,63.24Z"/><path class="cls-1" d="M1.35,61.05v.17a2,2,0,0,0,2,2h.17A2.2,2.2,0,0,1,1.35,61.05Z"/><rect class="cls-2" x="81" y="6.02" height="52.55"/><path class="cls-2" d="M86.63,1.35H3.37a2,2,0,0,0-2,2V61.05a2.2,2.2,0,0,0,2.19,2.19H86.46a2.2,2.2,0,0,0,2.19-2.19V3.37A2,2,0,0,0,86.63,1.35Zm-81,33.47a2.53,2.53,0,1,1,2.53-2.53A2.53,2.53,0,0,1,5.65,34.82Zm76.7,24.42a.68.68,0,0,1-.68.68h-71a.67.67,0,0,1-.67-.68V5.35a.67.67,0,0,1,.67-.68h71a.68.68,0,0,1,.68.68Z"/><path class="cls-2" d="M86.63,0H3.37A3.38,3.38,0,0,0,0,3.37V61.22a3.38,3.38,0,0,0,3.37,3.37H86.63A3.37,3.37,0,0,0,90,61.22V3.37A3.38,3.38,0,0,0,86.63,0Zm2,3.37V61.22a2,2,0,0,1-2,2H3.37a2,2,0,0,1-2-2V2.88A2.2,2.2,0,0,1,3.54.68H86.46a2.2,2.2,0,0,1,2.19,2.2Z"/><path class="cls-2" d="M86.46.68H3.54a2.2,2.2,0,0,0-2.19,2.2v.49a2,2,0,0,1,2-2H86.63a2,2,0,0,1,2,2V2.88A2.2,2.2,0,0,0,86.46.68Z"/><path class="cls-2" d="M81.67,4.67h-71a.67.67,0,0,0-.67.68V59.24a.67.67,0,0,0,.67.68h71a.68.68,0,0,0,.68-.68V5.35A.68.68,0,0,0,81.67,4.67ZM81,58.57H11.39V6H81Z"/><path class="cls-3" d="M5.65,29.77a2.53,2.53,0,1,0,2.53,2.52A2.53,2.53,0,0,0,5.65,29.77Zm0,3.7a1.18,1.18,0,1,1,1.18-1.18A1.18,1.18,0,0,1,5.65,33.47Z"/><path class="cls-4" d="M57.33,27.15a2.5,2.5,0,1,0,2.5,2.5A2.49,2.49,0,0,0,57.33,27.15Z"/><path class="cls-4" d="M11.39,6V58.57H81V6Zm22,37.49v3.55a.68.68,0,0,1-1.35,0V43.51A3.83,3.83,0,0,1,32,36V17.53a.68.68,0,0,1,1.35,0V36a3.83,3.83,0,0,1,0,7.55ZM45.68,28.89V47.06a.68.68,0,0,1-.68.67.67.67,0,0,1-.67-.67V28.89a3.84,3.84,0,0,1,0-7.56v-3.8a.68.68,0,0,1,.67-.68.69.69,0,0,1,.68.68v3.8a3.84,3.84,0,0,1,0,7.56ZM58,33.43V47.06a.68.68,0,0,1-1.35,0V33.43a3.84,3.84,0,0,1,0-7.56V17.53a.68.68,0,0,1,.68-.67.67.67,0,0,1,.67.67v8.34a3.84,3.84,0,0,1,0,7.56Z"/><path class="cls-4" d="M32.67,37.24a2.5,2.5,0,1,0,2.51,2.49A2.49,2.49,0,0,0,32.67,37.24Z"/><path class="cls-4" d="M45,22.61a2.5,2.5,0,1,0,2.5,2.5A2.5,2.5,0,0,0,45,22.61Z"/><path class="cls-5" d="M33.35,36V17.53a.68.68,0,0,0-1.35,0V36a3.83,3.83,0,0,0,0,7.55v3.55a.68.68,0,0,0,1.35,0V43.51a3.83,3.83,0,0,0,0-7.55Zm-.68,6.27a2.5,2.5,0,1,1,2.51-2.5A2.49,2.49,0,0,1,32.67,42.23Z"/><path class="cls-5" d="M45.68,21.33v-3.8a.69.69,0,0,0-.68-.68.68.68,0,0,0-.67.68v3.8a3.84,3.84,0,0,0,0,7.56V47.06a.67.67,0,0,0,.67.67.68.68,0,0,0,.68-.67V28.89a3.84,3.84,0,0,0,0-7.56ZM45,27.61a2.5,2.5,0,1,1,2.5-2.5A2.5,2.5,0,0,1,45,27.61Z"/><path class="cls-5" d="M58,25.87V17.53a.67.67,0,0,0-.67-.67.68.68,0,0,0-.68.67v8.34a3.84,3.84,0,0,0,0,7.56V47.06a.68.68,0,0,0,1.35,0V33.43a3.84,3.84,0,0,0,0-7.56Zm-.67,6.28a2.5,2.5,0,1,1,2.5-2.5A2.49,2.49,0,0,1,57.33,32.15Z"/><circle class="cls-4" cx="5.65" cy="32.29" r="1.18"/><path class="cls-4" d="M5.65,33.47a1.18,1.18,0,0,0,1.18-1.18A1.18,1.18,0,0,1,5.65,33.47Z"/><path class="cls-4" d="M5.65,31.11a1.18,1.18,0,0,1,1.18,1.18A1.18,1.18,0,0,0,5.65,31.11Z"/><path class="cls-4" d="M5.65,31.11a1.18,1.18,0,0,0-1.18,1.18A1.18,1.18,0,0,1,5.65,31.11Z"/><path class="cls-4" d="M4.47,32.29a1.18,1.18,0,0,0,1.18,1.18A1.18,1.18,0,0,1,4.47,32.29Z"/></g></g></svg>