<svg xmlns="http://www.w3.org/2000/svg" width="194.03" height="125.53" viewBox="0 0 194.03 125.53">
  <metadata><?xpacket begin="﻿" id="W5M0MpCehiHzreSzNTczkc9d"?>
<x:xmpmeta xmlns:x="adobe:ns:meta/" x:xmptk="Adobe XMP Core 5.6-c140 79.160451, 2017/05/06-01:08:21        ">
   <rdf:RDF xmlns:rdf="http://www.w3.org/1999/02/22-rdf-syntax-ns#">
      <rdf:Description rdf:about=""/>
   </rdf:RDF>
</x:xmpmeta>
                                                                                                    
                                                                                                    
                                                                                                    
                                                                                                    
                                                                                                    
                                                                                                    
                                                                                                    
                                                                                                    
                                                                                                    
                                                                                                    
                                                                                                    
                                                                                                    
                                                                                                    
                                                                                                    
                                                                                                    
                                                                                                    
                                                                                                    
                                                                                                    
                                                                                                    
                                                                                                    
                           
<?xpacket end="w"?></metadata>
<defs>
    <style>
      .cls-1 {
        fill: #9acddb;
      }

      .cls-1, .cls-2 {
        fill-rule: evenodd;
      }

      .cls-2 {
        fill: #ffca00;
      }
    </style>
  </defs>
  <path class="cls-1" d="M1855.88,2784.8h0a5.652,5.652,0,0,0,5.41-5.88,5.536,5.536,0,0,0-5.41-5.46,5.642,5.642,0,0,0-5.84,5.46,5.738,5.738,0,0,0,5.84,5.88h0Zm0,28.08h0a5.526,5.526,0,0,0,5.41-5.44,5.63,5.63,0,0,0-5.41-5.87,5.718,5.718,0,0,0-5.84,5.87,5.633,5.633,0,0,0,5.84,5.44h0Zm0,28.53h0c2.91,0,5.41-2.93,5.41-5.86a5.271,5.271,0,0,0-5.41-5.46c-3.33,0-5.84,2.1-5.84,5.46a5.981,5.981,0,0,0,5.84,5.86h0Zm0,28.11h0a5.528,5.528,0,0,0,5.41-5.45,5.639,5.639,0,0,0-5.41-5.88,5.726,5.726,0,0,0-5.84,5.88,5.634,5.634,0,0,0,5.84,5.45h0Zm168.26,16.78h0a5.631,5.631,0,0,0-5.42,5.87c0,2.94,2.5,5.88,5.42,5.88a5.974,5.974,0,0,0,5.82-5.88,5.7,5.7,0,0,0-5.82-5.87h0Zm-27.91,0h0a5.724,5.724,0,0,0-5.84,5.87,6,6,0,0,0,5.84,5.88c2.92,0,5.41-2.94,5.41-5.88a5.623,5.623,0,0,0-5.41-5.87h0Zm-28.3,0h0a5.633,5.633,0,0,0-5.43,5.87c0,2.94,2.5,5.88,5.43,5.88a5.981,5.981,0,0,0,5.82-5.88,5.708,5.708,0,0,0-5.82-5.87h0Zm-27.93,0h0c-3.32,0-5.41,2.51-5.41,5.87,0,2.94,2.09,5.88,5.41,5.88,2.93,0,5.43-2.94,5.43-5.88a5.633,5.633,0,0,0-5.43-5.87h0Zm-27.89,0h0a5.7,5.7,0,0,0-5.82,5.87,5.974,5.974,0,0,0,5.82,5.88c2.91,0,5.41-2.94,5.41-5.88a5.63,5.63,0,0,0-5.41-5.87h0Zm-28.32,0h0c-3.33,0-5.43,2.51-5.43,5.87a5.641,5.641,0,0,0,5.43,5.88,6.291,6.291,0,0,0,5.82-5.88,5.966,5.966,0,0,0-5.82-5.87h0Z" transform="translate(-1850.03 -2773.47)"/>
  <path class="cls-2" d="M1881.93,2899.01h0a10.337,10.337,0,0,0,10.58-10.6,8.72,8.72,0,0,0-.36-3.03c13.59-10.97,37.78-30.67,48.74-39.37a9.553,9.553,0,0,0,6.43,2.27,8.243,8.243,0,0,0,4.9-1.52c7.18,6.06,19.28,16.28,27.96,23.85a2.946,2.946,0,0,0-.36,1.89,10.568,10.568,0,0,0,10.57,10.61,10.9,10.9,0,0,0,10.97-10.61,6.924,6.924,0,0,0-.76-3.02l27.96-25.36a10.551,10.551,0,1,0-6.04-9.47,13.011,13.011,0,0,0,.76,4.16c-7.55,6.82-19.66,17.79-27.21,24.61a9.331,9.331,0,0,0-5.68-1.89c-2.26,0-4.53,1.14-6.42,2.27-7.17-5.67-18.52-15.52-26.83-22.72a11.015,11.015,0,0,0,.75-3.41,10.767,10.767,0,1,0-21.53,0,10.491,10.491,0,0,0,.76,3.41l-49.14,38.62a11.371,11.371,0,0,0-6.05-1.89,10.606,10.606,0,1,0,0,21.2h0Z" transform="translate(-1850.03 -2773.47)"/>
</svg>
