<svg xmlns="http://www.w3.org/2000/svg" viewBox="0 0 172.87 159.79"><defs><style>.cls-1{fill:none;}.cls-2{fill:#414042;}.cls-3{fill:#749093;}.cls-4{fill:#496664;}.cls-5{fill:#637b82;}.cls-6{fill:#63ada9;}.cls-7{fill:#599b99;}.cls-8{fill:#b5eae6;}.cls-9{fill:#495968;}.cls-10{fill:#ffca00;}.cls-11{fill:#fff;}.cls-12{fill:#245474;}.cls-13{fill:#009ea0;}.cls-14{fill:#ff9b00;}</style></defs><title>tap-ahead-seating</title><g id="Layer_2" data-name="Layer 2"><g id="OBJECTS"><path class="cls-1" d="M26.5,133.35c2.71,0,4.92.1,6.74.25l-2.81-9.94-11.78,1.19v8.86A72.9,72.9,0,0,1,26.5,133.35Z"/><path class="cls-1" d="M117.36,135.15h0s-1-.81.38-9.65l-5.42-.55v8.88A15.33,15.33,0,0,1,117.36,135.15Z"/><path class="cls-1" d="M111.29,133.71v-8.86l-11.78-1.19L96.7,133.6c1.82-.15,4-.25,6.74-.25A72.9,72.9,0,0,1,111.29,133.71Z"/><path class="cls-1" d="M12.2,125.5c1.36,8.84.38,9.65.38,9.65h0a15.33,15.33,0,0,1,5-1.32V125Z"/><rect class="cls-2" x="66.43" y="50.8" width="1.66" height="74.2"/><rect class="cls-2" x="66.43" y="128.42" width="1.66" height="31.37"/><polygon class="cls-3" points="0 50.8 49.93 50.8 67.26 24.12 0 50.8"/><path class="cls-4" d="M98,36.31,67.26,24.12,84.58,50.8h15.83A37.39,37.39,0,0,1,98,37.46C98,37.07,98,36.69,98,36.31Z"/><polygon class="cls-5" points="49.93 50.8 66.43 50.8 66.43 48.23 68.09 48.23 68.09 50.8 84.58 50.8 67.26 24.12 49.93 50.8"/><rect class="cls-5" x="66.43" y="48.23" width="1.66" height="2.57"/><polygon class="cls-6" points="40.13 124.99 40.13 128.42 48.92 128.42 49.73 125.46 51.92 125.46 51.11 128.42 66.43 128.42 66.43 124.99 40.13 124.99"/><polygon class="cls-6" points="83.41 128.42 82.59 125.46 84.78 125.46 85.59 128.42 94.39 128.42 94.39 124.99 68.09 124.99 68.09 128.42 83.41 128.42"/><rect class="cls-6" x="66.43" y="124.99" width="1.66" height="3.43"/><polygon class="cls-7" points="40.27 159.79 42.46 159.79 51.11 128.42 48.92 128.42 40.27 159.79"/><polygon class="cls-7" points="49.73 125.46 48.92 128.42 51.11 128.42 51.92 125.46 49.73 125.46"/><polygon class="cls-7" points="92.06 159.79 94.24 159.79 92.6 153.84 91.62 158.21 92.06 159.79"/><polygon class="cls-7" points="91 155.94 91.7 150.58 85.59 128.42 83.41 128.42 91 155.94"/><polygon class="cls-7" points="82.59 125.46 83.41 128.42 85.59 128.42 84.78 125.46 82.59 125.46"/><path class="cls-8" d="M119,125.63l-1.3-.13c-1.36,8.84-.38,9.65-.38,9.65h0c1.11.59,1.11,1.1,1.11,1.1l6.46-28.94s-3.89,0-6.46,13.91c-.22,1.18-.41,2.27-.57,3.26l1.24.13Z"/><path class="cls-8" d="M112.32,133.83v2.42h6.15l-1.11-1.1A15.33,15.33,0,0,0,112.32,133.83Z"/><path class="cls-8" d="M94.88,136.25l.72-2.54c-7.18.77-7.18,2.54-7.18,2.54h6.46Z"/><path class="cls-8" d="M111.29,136.25v-2.54a72.9,72.9,0,0,0-7.85-.36c-2.71,0-4.92.1-6.74.25L96,136.25h15.34Z"/><path class="cls-8" d="M117.36,135.15l1.11,1.1S118.47,135.74,117.36,135.15Z"/><path class="cls-9" d="M99.51,123.66l-1-.1L95.6,133.71l1.1-.11Z"/><path class="cls-9" d="M96,136.25l.75-2.65-1.1.11-.72,2.54Z"/><path class="cls-9" d="M112.32,133.83V125l-1-.1v8.86Z"/><path class="cls-9" d="M111.29,136.25h1v-2.42l-1-.12Z"/><polygon class="cls-7" points="90.49 159.79 91.27 159.79 91.62 158.21 91 155.94 90.49 159.79"/><polygon class="cls-7" points="96.34 137.19 93.47 137.19 91.7 150.58 92.6 153.84 96.34 137.19"/><polygon class="cls-7" points="91.62 158.21 92.6 153.84 91.7 150.58 91 155.94 91.62 158.21"/><polygon class="cls-7" points="116.55 159.79 117.33 159.79 114.35 137.19 111.47 137.19 116.55 159.79"/><polygon class="cls-9" points="114.35 137.19 118.47 137.19 118.47 136.25 114.22 136.25 114.35 137.19"/><polygon class="cls-9" points="96.56 136.25 96.34 137.19 111.47 137.19 111.26 136.25 96.56 136.25"/><polygon class="cls-9" points="88.42 136.25 88.42 137.19 93.47 137.19 93.59 136.25 88.42 136.25"/><polygon class="cls-9" points="96.56 136.25 95.95 136.25 95.78 136.86 94.79 136.58 94.88 136.25 93.59 136.25 93.47 137.19 96.34 137.19 96.56 136.25"/><polygon class="cls-9" points="94.79 136.58 95.78 136.86 95.95 136.25 94.88 136.25 94.79 136.58"/><polygon class="cls-9" points="112.32 136.25 111.29 136.25 111.26 136.25 111.47 137.19 114.35 137.19 114.22 136.25 112.32 136.25"/><path class="cls-8" d="M105.65,121.22c-6.45-.84-10.11.21-11.65.85l22.83,2.3C115.29,123.53,111.82,122,105.65,121.22Z"/><path class="cls-9" d="M93.13,122.5a7.29,7.29,0,0,1,.87-.43l-1.75-.17-.1,1,6.32.64.15-.51Z"/><path class="cls-9" d="M98.85,123.08l.77.22-.11.36,11.78,1.19v-.33h1V125l5.42.55c.05-.33.1-.67.16-1l-1.07-.11a7.26,7.26,0,0,1,1,.62Z"/><path class="cls-9" d="M119,125.63l.1-1-1.24-.13c-.06.35-.11.69-.16,1Z"/><polygon class="cls-9" points="99.62 123.3 98.85 123.08 98.61 123.06 98.47 123.56 99.51 123.66 99.62 123.3"/><polygon class="cls-9" points="112.32 124.52 111.29 124.52 111.29 124.85 112.32 124.95 112.32 124.52"/><path class="cls-9" d="M98.62,123.05v0l.22.07,19,1.91a7.26,7.26,0,0,0-1-.62L94,122.07a7.29,7.29,0,0,0-.87.43Z"/><polygon class="cls-9" points="98.61 123.06 98.85 123.08 98.63 123.02 98.61 123.06"/><path class="cls-8" d="M12.58,135.15h0s1-.81-.38-9.65l-1.3.13-.1-1,1.24-.13c-.16-1-.35-2.08-.57-3.26C8.9,107.31,5,107.31,5,107.31l6.46,28.94S11.47,135.74,12.58,135.15Z"/><path class="cls-8" d="M17.62,136.25v-2.42a15.33,15.33,0,0,0-5,1.32l-1.11,1.1h6.15Z"/><path class="cls-8" d="M36.35,136.25h5.17s0-1.77-7.18-2.54l.72,2.54Z"/><path class="cls-8" d="M26.5,133.35a72.9,72.9,0,0,0-7.85.36v2.54H34l-.75-2.65C31.42,133.45,29.21,133.35,26.5,133.35Z"/><path class="cls-8" d="M11.47,136.25l1.11-1.1C11.47,135.74,11.47,136.25,11.47,136.25Z"/><path class="cls-9" d="M33.24,133.6l1.1.11-2.87-10.15-1,.1Z"/><path class="cls-9" d="M34,136.25h1.07l-.72-2.54-1.1-.11Z"/><path class="cls-9" d="M18.65,124.85l-1,.1v8.88l1-.12Z"/><path class="cls-9" d="M17.62,133.83v2.42h1v-2.54Z"/><polygon class="cls-7" points="33.6 137.19 38.67 159.79 39.45 159.79 36.47 137.19 33.6 137.19"/><polygon class="cls-7" points="12.61 159.79 13.39 159.79 18.47 137.19 15.59 137.19 12.61 159.79"/><polygon class="cls-9" points="11.47 136.25 11.47 137.19 15.59 137.19 15.72 136.25 11.47 136.25"/><polygon class="cls-9" points="18.68 136.25 18.47 137.19 33.6 137.19 33.38 136.25 18.68 136.25"/><polygon class="cls-9" points="36.47 137.19 41.52 137.19 41.52 136.25 36.34 136.25 36.47 137.19"/><polygon class="cls-9" points="36.34 136.25 35.06 136.25 35.15 136.58 34.16 136.86 33.99 136.25 33.38 136.25 33.6 137.19 36.47 137.19 36.34 136.25"/><polygon class="cls-9" points="34.16 136.86 35.15 136.58 35.06 136.25 33.99 136.25 34.16 136.86"/><polygon class="cls-9" points="18.65 136.25 17.62 136.25 15.72 136.25 15.59 137.19 18.47 137.19 18.68 136.25 18.65 136.25"/><path class="cls-8" d="M24.29,121.22c-6.17.8-9.64,2.31-11.18,3.15l22.83-2.3C34.4,121.43,30.74,120.38,24.29,121.22Z"/><path class="cls-9" d="M31.32,123.05l.15.51,6.32-.64-.1-1-1.75.17a7.29,7.29,0,0,1,.87.43Z"/><path class="cls-9" d="M17.62,125v-.43h1v.33l11.78-1.19-.11-.36.76-.22-19,1.91a7.26,7.26,0,0,1,1-.62l-1.07.11c.06.35.11.69.16,1Z"/><path class="cls-9" d="M10.9,125.63l1.3-.13c0-.33-.1-.67-.16-1l-1.24.13Z"/><polygon class="cls-9" points="31.09 123.08 30.32 123.3 30.43 123.66 31.47 123.56 31.32 123.06 31.09 123.08"/><polygon class="cls-9" points="18.65 124.52 17.62 124.52 17.62 124.95 18.65 124.85 18.65 124.52"/><path class="cls-9" d="M31.08,123.08l.23-.07v0l5.49-.55a7.29,7.29,0,0,0-.87-.43l-22.83,2.3a7.26,7.26,0,0,0-1,.62Z"/><polygon class="cls-9" points="31.31 123.02 31.09 123.08 31.32 123.06 31.31 123.02"/><path class="cls-10" d="M135.42,0A37.44,37.44,0,0,0,98,36.31l8.26,3.27c0-.7-.09-1.41-.09-2.12a29.25,29.25,0,1,1,3.22,13.34h-9a37.46,37.46,0,1,0,35-50.8Z"/><path class="cls-10" d="M106.25,39.58,98,36.31c0,.38,0,.76,0,1.15a37.39,37.39,0,0,0,2.45,13.34h9A29.09,29.09,0,0,1,106.25,39.58Z"/><path class="cls-11" d="M114,50.8l-1,.55-.32-.55h-3.31a29.26,29.26,0,1,0-3.22-13.34c0,.71,0,1.42.09,2.12L134.51,50.8Zm9,9.89-1.44-.83,2.75-4.75,1.43.83Zm13.28,3.12h-1.65V58.32h1.65Zm25.52-25.53h-5.48V36.63h5.48Zm-3.94-14.71.83,1.43-4.75,2.74-.83-1.43Zm-3.92,23.6,4.75,2.75-.83,1.43-4.75-2.75Zm-6-32.94,1.44.82-2.75,4.75L145.13,19Zm-1.31,40.88,2.75,4.75-1.44.83-2.74-4.75ZM137.9,25.16a30.37,30.37,0,0,1,2.94-7.56,30.42,30.42,0,0,1-.79,8.07,30.58,30.58,0,0,1-2.94,7.56A30.91,30.91,0,0,1,137.9,25.16Zm-3.31-14h1.65v5.48h-1.65ZM123,14.23,125.7,19l-1.43.82-2.75-4.75Zm-8.41,24.05h-5.48V36.63h5.48Zm2.38-10.54L112.18,25l.83-1.43,4.75,2.74ZM126,38.56a13.34,13.34,0,0,1-5.2-.82,12.58,12.58,0,0,1,10.28-.56A13.34,13.34,0,0,1,126,38.56Zm6.39-1.1a3,3,0,1,1,3,3A3,3,0,0,1,132.4,37.46Z"/><path class="cls-11" d="M112.69,50.8l-.51-.88,4.75-2.75.83,1.43L114,50.8h20.54L106.25,39.58a29.09,29.09,0,0,0,3.13,11.22Z"/><rect class="cls-12" x="134.59" y="11.11" width="1.65" height="5.49"/><rect class="cls-12" x="134.59" y="58.32" width="1.65" height="5.49"/><rect class="cls-12" x="122.79" y="14.27" width="1.65" height="5.49" transform="translate(8.05 64.09) rotate(-30)"/><rect class="cls-12" x="146.39" y="55.16" width="1.65" height="5.49" transform="translate(-9.23 81.37) rotate(-30)"/><rect class="cls-12" x="114.15" y="22.91" width="1.65" height="5.49" transform="translate(35.27 112.39) rotate(-60)"/><rect class="cls-12" x="155.03" y="46.52" width="1.65" height="5.49" transform="translate(35.27 159.61) rotate(-60)"/><rect class="cls-12" x="109.07" y="36.63" width="5.49" height="1.65"/><rect class="cls-12" x="156.28" y="36.63" width="5.49" height="1.65"/><polygon class="cls-12" points="113.97 50.8 112.69 50.8 113.01 51.35 113.97 50.8"/><polygon class="cls-12" points="117.76 48.6 116.93 47.17 112.18 49.92 112.69 50.8 113.97 50.8 117.76 48.6"/><rect class="cls-12" x="153.12" y="24.83" width="5.49" height="1.65" transform="translate(8.05 81.36) rotate(-30)"/><rect class="cls-12" x="120.87" y="57.07" width="5.49" height="1.65" transform="translate(11.66 136) rotate(-60)"/><rect class="cls-12" x="144.48" y="16.19" width="5.49" height="1.65" transform="translate(58.88 136.01) rotate(-60)"/><path class="cls-13" d="M138.43,37.46a3,3,0,1,0-3,3A3,3,0,0,0,138.43,37.46Zm-4.43,0a1.42,1.42,0,1,1,1.42,1.41A1.42,1.42,0,0,1,134,37.46Z"/><path class="cls-11" d="M136.83,37.46a1.42,1.42,0,1,0-1.41,1.41A1.41,1.41,0,0,0,136.83,37.46Z"/><path class="cls-14" d="M125.89,36.36a13.14,13.14,0,0,0-5.08,1.38,12.58,12.58,0,0,0,10.28-.56A13.12,13.12,0,0,0,125.89,36.36Z"/><path class="cls-14" d="M140.05,25.67a30.42,30.42,0,0,0,.79-8.07,30.37,30.37,0,0,0-2.94,7.56,30.91,30.91,0,0,0-.79,8.07A30.58,30.58,0,0,0,140.05,25.67Z"/></g></g></svg>