<svg xmlns="http://www.w3.org/2000/svg" width="56" height="56" viewBox="0 0 56 56">
  <metadata><?xpacket begin="﻿" id="W5M0MpCehiHzreSzNTczkc9d"?>
<x:xmpmeta xmlns:x="adobe:ns:meta/" x:xmptk="Adobe XMP Core 5.6-c140 79.160451, 2017/05/06-01:08:21        ">
   <rdf:RDF xmlns:rdf="http://www.w3.org/1999/02/22-rdf-syntax-ns#">
      <rdf:Description rdf:about=""/>
   </rdf:RDF>
</x:xmpmeta>
                                                                                                    
                                                                                                    
                                                                                                    
                                                                                                    
                                                                                                    
                                                                                                    
                                                                                                    
                                                                                                    
                                                                                                    
                                                                                                    
                                                                                                    
                                                                                                    
                                                                                                    
                                                                                                    
                                                                                                    
                                                                                                    
                                                                                                    
                                                                                                    
                                                                                                    
                                                                                                    
                           
<?xpacket end="w"?></metadata>
<defs>
    <style>
      .cls-1 {
        fill: #110e1e;
        fill-rule: evenodd;
      }
    </style>
  </defs>
  <path id="waiting-list" class="cls-1" d="M912.344,1558.83c0.462-.12.932-0.22,1.4-0.31a2.271,2.271,0,0,0,.885-4.08,2.211,2.211,0,0,0-1.706-.38c-0.556.1-1.117,0.23-1.668,0.37A2.266,2.266,0,0,0,912.344,1558.83ZM895.7,1589.22a2.254,2.254,0,1,0-4.275,1.43c0.178,0.54.375,1.08,0.586,1.61a2.241,2.241,0,0,0,2.925,1.26,2.264,2.264,0,0,0,1.254-2.94C896.012,1590.13,895.846,1589.67,895.7,1589.22Zm9.331-27.16c0.4-.26.807-0.52,1.219-0.76a2.266,2.266,0,0,0,.825-3.09,2.16,2.16,0,0,0-.651-0.72,2.216,2.216,0,0,0-2.423-.11c-0.49.28-.979,0.58-1.452,0.9a2.279,2.279,0,0,0-.637,3.14A2.237,2.237,0,0,0,905.029,1562.06Zm-15.007,20.83a2.252,2.252,0,1,0,4.5-.18c-0.018-.48-0.023-0.97-0.012-1.44a2.272,2.272,0,0,0-.957-1.91,2.226,2.226,0,0,0-1.244-.41,2.253,2.253,0,0,0-2.3,2.22C890,1581.74,890,1582.32,890.022,1582.89Zm6.042-14.86a2.243,2.243,0,0,0,3.152-.45c0.286-.39.587-0.77,0.895-1.13a2.285,2.285,0,0,0-.254-3.2c-0.055-.04-0.109-0.09-0.166-0.13a2.246,2.246,0,0,0-3.007.39c-0.369.43-.728,0.89-1.069,1.34A2.284,2.284,0,0,0,896.064,1568.03Zm-3.309,8.2a2.25,2.25,0,0,0,2.821-1.49c0.143-.46.3-0.92,0.471-1.36a2.278,2.278,0,0,0-.805-2.66,2.172,2.172,0,0,0-.5-0.27,2.243,2.243,0,0,0-2.9,1.31q-0.3.81-.559,1.62A2.281,2.281,0,0,0,892.755,1576.23Zm29.411-17.73a22.756,22.756,0,0,1,5.774,1.85l0.064,0.03c0.432,0.21.861,0.43,1.279,0.66h0.006a22.076,22.076,0,0,1,2.241,1.41,23.75,23.75,0,0,1-.1,38.76,0.351,0.351,0,0,1-.08.05,23.378,23.378,0,0,1-26.373.22l1.759-2.56c0.489-.71.188-1.23-0.668-1.16l-7.64.69a1.27,1.27,0,0,0-1.139,1.66l2.052,7.45c0.229,0.83.817,0.93,1.306,0.22l1.764-2.57a27.61,27.61,0,0,0,20.372,4.37c0.72-.13,1.431-0.28,2.131-0.46h0.014l0.081-.03A27.724,27.724,0,0,0,940.4,1598.7c0.032-.04.067-0.08,0.1-0.12,0.127-.17.254-0.35,0.378-0.53,0.2-.29.4-0.58,0.6-0.88,0.024-.04.042-0.07,0.063-0.11a28.12,28.12,0,0,0,4.436-16.49c0-.02,0-0.04,0-0.06-0.025-.57-0.07-1.14-0.131-1.71,0-.04-0.012-0.07-0.018-0.11q-0.093-.855-0.24-1.71a28.068,28.068,0,0,0-7.833-15.18l-0.03-.03s-0.007-.01-0.01-0.01a29.3,29.3,0,0,0-3.586-3.02,27.564,27.564,0,0,0-11.163-4.7,2.238,2.238,0,0,0-2.612,1.83A2.264,2.264,0,0,0,922.166,1558.5Zm-2.785,41.61a1.826,1.826,0,0,0,1.823-1.83V1580l-16.595-8.64a1.8,1.8,0,0,0-.835-0.21,1.841,1.841,0,0,0-.838,3.47l14.627,7.62v16.04A1.825,1.825,0,0,0,919.381,1600.11Z" transform="translate(-890 -1554)"/>
</svg>
